<?xml version="1.0" encoding="utf-8"?>
<!-- Generator: Adobe Illustrator 15.0.0, SVG Export Plug-In  -->
<!DOCTYPE svg PUBLIC "-//W3C//DTD SVG 1.1//EN" "http://www.w3.org/Graphics/SVG/1.1/DTD/svg11.dtd" [
	<!ENTITY ns_flows "http://ns.adobe.com/Flows/1.0/">
]>
<svg version="1.1"
	 xmlns="http://www.w3.org/2000/svg" xmlns:xlink="http://www.w3.org/1999/xlink" xmlns:a="http://ns.adobe.com/AdobeSVGViewerExtensions/3.0/"
	 x="0px" y="0px" width="464px" height="189px" viewBox="0 0 464 189" overflow="visible" enable-background="new 0 0 464 189"
	 xml:space="preserve">
<defs>
</defs>
<path fill="#FFFFFF" d="M327.291,30.315c-2.269,1.031-5.774,1.732-9.115,1.732c-10.229,0-14.354-5.196-14.354-15.961
	C303.822,5.073,308.235,0,318.34,0c2.928,0,6.104,0.578,8.372,1.444l-0.577,5.073c-2.145-0.866-4.825-1.361-7.507-1.361
	c-6.475,0-8.826,2.474-8.826,10.847c0,8.332,2.187,10.806,8.208,10.806c1.608,0,3.01-0.206,4.248-0.577V14.931h5.032V30.315z"/>
<path fill="#FFFFFF" d="M354.347,18.189l7.63,13.28h-6.682l-6.104-12.167h-5.279v12.167h-5.691V0.536h10.93
	c7.259,0,10.765,2.929,10.765,9.28C359.916,14.353,357.935,17.322,354.347,18.189 M349.192,5.403h-5.279v9.486h5.114
	c3.506,0,4.99-1.155,4.99-4.867C354.017,6.599,352.615,5.403,349.192,5.403"/>
<path fill="#FFFFFF" d="M382.601,32.047c-9.362,0-13.28-4.908-13.28-16.044c0-11.136,3.795-15.962,13.28-15.962
	c9.445,0,13.198,4.826,13.198,15.962C395.799,27.304,392.046,32.047,382.601,32.047 M382.56,5.279
	c-5.279,0-7.259,2.186-7.259,10.724c0,8.537,1.979,10.806,7.3,10.806c5.321,0,7.26-2.31,7.26-10.806
	C389.861,7.424,387.963,5.279,382.56,5.279"/>
<path fill="#FFFFFF" d="M430.324,20.375c0,7.919-4.207,11.672-12.126,11.672c-7.878,0-12.167-3.712-12.167-11.672V0.536h5.65v19.797
	c0,4.455,2.062,6.435,6.517,6.435c4.455,0,6.433-1.98,6.433-6.435V0.536h5.693V20.375z"/>
<path fill="#FFFFFF" d="M452.555,20.705h-5.031v10.764h-5.693V0.536h10.725c8.125,0,11.467,3.217,11.467,10.229
	C464.021,17.199,460.721,20.705,452.555,20.705 M452.555,5.403h-5.031v10.641h5.031c3.836,0,5.609-1.073,5.609-5.321
	C458.164,6.681,456.555,5.403,452.555,5.403"/>
<rect y="0.15" fill="#FFFFFF" width="34.816" height="189.228"/>
<polygon fill="#FFFFFF" points="161.533,108.134 238.485,108.134 238.485,189.378 273.307,189.378 273.307,0.15 238.485,0.15 
	238.485,76.092 161.533,76.092 "/>
<polygon fill="#FFFFFF" points="166.482,0.15 125.86,0.15 63.184,94.764 125.86,189.378 166.482,189.378 102.761,94.764 "/>
</svg>
