<?xml version="1.0" encoding="UTF-8"?>
<svg id="Vrstva_2" data-name="Vrstva 2" xmlns="http://www.w3.org/2000/svg" xmlns:xlink="http://www.w3.org/1999/xlink" viewBox="0 0 143.48 26.52">
  <defs>
    <style>
      .cls-1 {
        fill: none;
      }

      .cls-2 {
        fill: #ff6101;
      }

      .cls-3 {
        clip-path: url(#clippath);
      }
    </style>
    <clipPath id="clippath">
      <rect class="cls-1" width="26.72" height="26.52"/>
    </clipPath>
  </defs>
  <g id="Vrstva_1-2" data-name="Vrstva 1">
    <g class="cls-3">
      <g>
        <path class="cls-2" d="M23.13,26.52c-.96,0-1.86-.37-2.54-1.05-.68-.68-1.05-1.58-1.05-2.54s.37-1.86,1.05-2.54c.68-.68,1.58-1.05,2.54-1.05s1.86.37,2.54,1.05c1.4,1.4,1.4,3.68,0,5.09-.68.68-1.58,1.05-2.54,1.05h0Z"/>
        <path class="cls-2" d="M3.6,7.36c-.96,0-1.86-.37-2.54-1.05-.68-.68-1.05-1.58-1.05-2.54S.37,1.9,1.05,1.22C1.73.54,2.64.17,3.6.17s1.86.37,2.54,1.05c.68.68,1.05,1.58,1.05,2.54s-.37,1.86-1.05,2.54c-.68.68-1.58,1.05-2.54,1.05h0Z"/>
        <path class="cls-2" d="M22.96,7.25c-.96,0-1.86-.37-2.54-1.05-1.4-1.4-1.4-3.68,0-5.08.68-.68,1.58-1.05,2.54-1.05s1.86.37,2.54,1.05c1.4,1.4,1.4,3.68,0,5.09-.68.68-1.58,1.05-2.54,1.05h0Z"/>
        <path class="cls-2" d="M3.69,26.52c-.96,0-1.86-.37-2.54-1.05-.68-.68-1.05-1.58-1.05-2.54s.37-1.86,1.05-2.54c.14-.14.3-.27.51-.41.06-.04.12-.08.18-.11.13-.08.27-.15.39-.2.07-.03.14-.06.21-.09.13-.05.27-.09.44-.13.03,0,.06-.02.09-.03.02,0,.04-.01.05-.02l.8-.05c.1,0,.21.02.33.03h.05s.06.01.1.02h.07s.03,0,.03,0c.06,0,.12,0,.17,0,1.38,0,2.74-.59,3.74-1.61.99-1.02,1.54-2.39,1.5-3.76v-.08s-.02-.08-.02-.12c0-.05,0-.09-.01-.14v-.08c-.02-.07-.03-.14-.03-.21l.06-.8s.01-.04.02-.06v-.05c.05-.15.09-.3.15-.45.03-.08.06-.15.09-.21.06-.14.13-.27.21-.4.03-.06.07-.11.11-.17.15-.21.28-.37.41-.51.68-.68,1.58-1.05,2.54-1.05s1.86.37,2.54,1.05c1.4,1.4,1.4,3.68,0,5.08-.14.14-.3.27-.51.41-.06.04-.12.08-.17.11-.13.08-.26.15-.39.21-.07.03-.14.06-.21.09-.14.05-.28.09-.44.13l-.09.02s-.04.01-.06.02l-.81.06c-.09,0-.19-.02-.3-.03h-.07s-.06-.02-.1-.02h-.07s-.03-.01-.03-.01c-.06,0-.12,0-.18,0-1.38,0-2.74.59-3.74,1.61-.99,1.02-1.54,2.39-1.5,3.77v.08s.02.08.02.12c0,.05,0,.09.01.14,0,.03,0,.08.01.13,0,.05.01.11.01.16v.02l-.06.77s-.03.11-.04.13c-.04.17-.08.31-.13.45-.03.07-.05.14-.09.2-.06.14-.13.27-.21.4-.03.05-.07.12-.11.18-.13.19-.27.36-.41.5-.68.68-1.58,1.05-2.54,1.05Z"/>
        <path d="M13.4,26.52c-.96,0-1.87-.37-2.54-1.05-.68-.68-1.05-1.58-1.05-2.54,0-.96.37-1.86,1.05-2.54.14-.14.29-.27.51-.42.05-.04.11-.07.17-.11.13-.08.26-.15.39-.21.07-.03.14-.06.21-.09.13-.05.28-.09.43-.13,0,0,.13-.04.14-.04l.81-.06c.1,0,.2.02.31.03h.06s.07.01.11.01h.1c.06,0,.12,0,.18,0,1.38,0,2.74-.59,3.73-1.61.99-1.02,1.54-2.39,1.5-3.76v-.17s-.02-.02-.02-.02v-.02s0-.08,0-.12v-.11c-.02-.06-.03-.13-.03-.19l.05-.78s.03-.11.04-.14c.05-.19.09-.32.13-.44.03-.07.06-.14.09-.21.06-.13.13-.25.21-.39l.02-.03s.05-.09.09-.14c.15-.21.28-.37.42-.51.68-.68,1.58-1.05,2.54-1.05s1.86.37,2.54,1.05c1.4,1.4,1.4,3.68,0,5.09-.13.13-.3.27-.51.41-.04.03-.08.05-.12.08l-.06.04c-.12.07-.25.14-.38.2-.07.03-.14.06-.21.09-.13.05-.27.09-.44.13-.03,0-.06.02-.09.03-.02,0-.04.01-.06.02l-.8.05c-.12,0-.24-.02-.37-.04-.04,0-.07,0-.11,0h-.11c-.06,0-.12,0-.18,0-1.38,0-2.74.59-3.73,1.61-.99,1.02-1.54,2.39-1.5,3.77v.08s.02.08.02.12c0,.04,0,.08.01.12,0,.03,0,.08.01.12,0,.06.01.12.02.18l-.06.79s-.03.12-.03.12c-.04.17-.08.31-.13.45-.02.06-.05.13-.08.19v.02c-.07.13-.13.26-.21.38-.04.06-.07.12-.11.18-.14.2-.27.37-.42.51-.67.68-1.58,1.05-2.54,1.05h0Z"/>
        <path d="M3.69,16.82c-.96,0-1.86-.37-2.54-1.05-.68-.68-1.05-1.58-1.05-2.54s.37-1.86,1.05-2.54c.14-.14.3-.27.51-.41.05-.04.12-.07.18-.11.12-.07.25-.14.39-.2.07-.03.14-.06.21-.09.13-.05.28-.09.43-.13l.09-.03s.03-.01.05-.01l.81-.06c.11,0,.22.02.34.04h.03s.07,0,.11.01h.07s.03,0,.03,0c.06,0,.12,0,.18,0,1.38,0,2.74-.59,3.73-1.61.99-1.02,1.54-2.39,1.5-3.77v-.08s-.02-.09-.02-.13c0-.04,0-.07,0-.11v-.11c-.02-.07-.03-.13-.03-.2l.05-.75v-.02s0-.02,0-.02c0-.02.03-.12.03-.12.05-.19.09-.33.13-.46.03-.07.06-.13.09-.21.06-.13.13-.26.21-.39v-.02c.04-.05.07-.1.11-.16.14-.21.27-.37.41-.51C11.45.38,12.35,0,13.32,0s1.86.37,2.54,1.05c1.4,1.4,1.4,3.68,0,5.08-.14.14-.3.27-.51.41-.05.04-.1.07-.15.1l-.03.02c-.13.08-.26.15-.38.2-.07.03-.14.06-.21.09-.13.05-.28.09-.44.13-.03,0-.06.02-.1.03-.02,0-.04.01-.06.02l-.8.05c-.1,0-.21-.02-.32-.03h-.05s-.07-.01-.1-.02c-.01,0-.03,0-.04,0h-.06c-.06,0-.12-.01-.18-.01-1.38,0-2.74.59-3.73,1.61-.99,1.02-1.54,2.39-1.5,3.77v.08s.02.08.02.12c0,.04,0,.08.01.13,0,.03,0,.08.01.12,0,.06.01.12.02.18l-.06.78s-.01.04-.02.06l-.02.07c-.04.18-.08.32-.13.45-.03.07-.06.14-.09.21-.06.13-.13.26-.2.39-.04.06-.07.12-.11.18-.15.21-.27.37-.41.51-.68.68-1.58,1.05-2.54,1.05Z"/>
      </g>
    </g>
    <g>
      <path d="M39.44,8.65c-1.44,0-2.17.48-2.17,1.43,0,.42.18.75.54.97.36.23,1.19.55,2.51.97s2.24.9,2.77,1.44c.53.54.79,1.36.79,2.47,0,1.42-.43,2.49-1.29,3.22-.86.73-1.99,1.09-3.38,1.09-1.03,0-2.3-.16-3.79-.48l-.71-.14.28-2.12c1.77.24,3.13.36,4.07.36,1.4,0,2.11-.58,2.11-1.75,0-.42-.16-.75-.49-.99-.32-.24-.97-.5-1.94-.77-1.54-.44-2.62-.96-3.25-1.56-.63-.6-.94-1.44-.94-2.51,0-1.35.41-2.36,1.23-3.02.82-.66,1.95-.99,3.38-.99.98,0,2.23.13,3.73.4l.72.14-.22,2.17c-1.87-.21-3.19-.32-3.95-.32Z"/>
      <path d="M53.79,20.02h-7.69V6.51h2.74v11.08h4.95v2.42Z"/>
      <path d="M59.63,8.65c-1.44,0-2.17.48-2.17,1.43,0,.42.18.75.54.97.36.23,1.19.55,2.51.97s2.24.9,2.77,1.44c.53.54.79,1.36.79,2.47,0,1.42-.43,2.49-1.29,3.22-.86.73-1.99,1.09-3.38,1.09-1.03,0-2.3-.16-3.79-.48l-.71-.14.28-2.12c1.77.24,3.13.36,4.07.36,1.4,0,2.11-.58,2.11-1.75,0-.42-.16-.75-.49-.99-.32-.24-.97-.5-1.94-.77-1.54-.44-2.62-.96-3.25-1.56-.63-.6-.94-1.44-.94-2.51,0-1.35.41-2.36,1.23-3.02.82-.66,1.95-.99,3.38-.99.98,0,2.23.13,3.73.4l.72.14-.22,2.17c-1.87-.21-3.19-.32-3.95-.32Z"/>
      <path d="M70.65,20.02V6.51h4.67l2.38,9.85,2.38-9.85h4.67v13.51h-2.74v-10.45h-.3l-2.64,9.85h-2.74l-2.64-9.85h-.3v10.45h-2.74Z"/>
      <path d="M86.57,20.02l3.04-13.51h5.21l3.04,13.51h-2.74l-.54-2.44h-4.73l-.54,2.44h-2.74ZM91.73,8.77l-1.37,6.42h3.7l-1.37-6.42h-.95Z"/>
      <path d="M102.4,15.49v4.53h-2.74V6.51h5.25c3.18,0,4.77,1.48,4.77,4.45,0,1.76-.66,3.06-1.99,3.89l1.93,5.17h-3l-1.57-4.53h-2.64ZM106.39,12.55c.32-.4.48-.92.48-1.57s-.17-1.17-.51-1.55-.82-.58-1.46-.58h-2.5v4.29h2.54c.65,0,1.13-.2,1.45-.6Z"/>
      <path d="M114.71,20.02h-2.74V6.51h2.74v5.94l1.83-.2,2.23-5.74h3.12l-2.94,6.77,3.02,6.73h-3.16l-2.26-5.38-1.83.2v5.18Z"/>
      <path d="M123.75,20.02V6.51h8.74v2.38h-6v3.16h4.81v2.34h-4.81v3.24h6v2.38h-8.74Z"/>
      <path d="M133.55,8.93v-2.42h9.93v2.42h-3.58v11.08h-2.74v-11.08h-3.62Z"/>
    </g>
    <path class="cls-2" d="M67.44,20.02c-.48,0-.93-.19-1.27-.53-.7-.7-.7-1.84,0-2.54.34-.34.79-.53,1.27-.53s.93.19,1.27.53c.7.7.7,1.84,0,2.54-.34.34-.79.53-1.27.53h0Z"/>
  </g>
</svg>