<?xml version="1.0"?>

<svg width="100%" height="100%" viewBox="0 0 800 627" version="1.1" xmlns="http://www.w3.org/2000/svg" xmlns:xlink="http://www.w3.org/1999/xlink" xml:space="preserve" xmlns:serif="http://www.serif.com/" style="fill-rule:evenodd;clip-rule:evenodd;stroke-linejoin:round;stroke-miterlimit:2;">
    <g transform="matrix(1,0,0,1,-146.1,26.25)">
        <path d="M632.1,237.2L546,187.5L459.9,237.2L459.9,337.2L546,386.9L632.1,337.2L632.1,237.2ZM567.2,5.9L778.9,128.1C792.3,135.9 800,149.2 800,164.7L800,409.1C800,424.6 792.3,437.9 778.9,445.7L567.2,568C553.7,575.8 538.4,575.8 524.9,568L460,530.5L459.9,422.7L526.4,461.1C538.9,468.3 553.2,468.3 565.6,461.1L686.8,391.1C699.3,383.9 706.4,371.5 706.4,357.1L706.4,217.3C706.4,202.9 699.3,190.5 686.8,183.3L565.6,113.3C553.1,106.1 538.8,106.1 526.4,113.3L405.2,183.3C392.7,190.5 385.6,202.9 385.6,217.3L385.6,379.8L385.7,487.6L313.3,445.8C299.9,438 292.2,424.7 292.2,409.2L292.2,164.7C292.2,149.2 299.9,135.9 313.3,128.1L524.9,5.9C538.3,-1.9 553.7,-1.9 567.2,5.9" style="fill:rgb(255,96,0);"></path>
    </g>
</svg>